<svg width="919" height="132" viewBox="0 0 919 132" fill="none" xmlns="http://www.w3.org/2000/svg">
<path d="M2 32.5202C12.7977 33.0177 38.2027 40.009 53.4406 63.9944C72.4881 93.9761 120.764 91.3403 136.856 52.4629C152.948 13.5855 173.967 -18.373 208.778 17.8686C243.589 54.1103 246.762 49.5011 276.759 58.7228C307.046 68.0336 307.741 99.3565 329.296 120.981C341.776 133.501 371.669 138.455 401.883 100.236C432.097 62.0176 460.997 74.8669 488.911 103.201C516.826 131.536 555.907 108.473 569.043 98.5887C582.18 88.7046 597.887 85.6369 622.246 89.3635C652.594 94.0065 665.267 81.1268 676.762 60.6997C688.256 40.2725 712.558 43.8967 727.993 45.5441C743.429 47.1914 768.388 43.8967 782.509 33.3537C796.631 22.8107 831.771 -12.1131 855.088 42.9083C873.742 86.9254 904.344 106.732 917.313 111.133" stroke="#F23645" stroke-width="3" stroke-linecap="round" stroke-linejoin="round"/>
</svg>
