<svg width="563" height="476" viewBox="0 0 563 476" fill="none" xmlns="http://www.w3.org/2000/svg">
<path d="M65.608 154.66C-79.4961 52.2566 44.7659 -72.2104 175.202 -112.343C249.038 -138.524 234.019 -233.139 325.527 -265.524C417.034 -297.908 398.339 -148.142 540.168 -195.487C681.996 -242.831 780.638 -15.0513 687.99 64.5014C595.342 144.054 646.739 153.818 610.592 302.251C574.444 450.685 334.509 482.48 288.603 345.874C242.697 209.267 222.686 265.513 65.608 154.66Z" stroke="#AB71F4" stroke-opacity="0.2" stroke-width="0.857864"/>
<path d="M353.261 91.033C338.705 81.883 341.763 45.3516 364.756 41.0108C385.812 37.0358 396.217 19.5335 408.903 15.0553C442.3 3.26585 436.88 15.9717 457.477 17.6107C482.541 19.6051 518.182 49.427 485.986 75.8365C459.506 97.5571 477.978 103.919 462.824 125.882C447.67 147.845 417.227 156.59 396.279 131.052C388.412 121.462 377.504 106.273 353.261 91.033Z" stroke="#AB71F4" stroke-opacity="0.2" stroke-width="0.857864"/>
<path d="M91.2282 148.235C-42.0079 54.309 71.2356 -62.1639 191.904 -99.043C260.942 -123.205 248.235 -210.81 332.576 -240.658C418.801 -271.17 401.313 -133.864 532.121 -176.755C663.334 -219.614 756.249 -9.83064 669.096 64.8909C582.464 139.186 630.867 148.641 596.628 285.577C562.389 422.513 341.499 452.213 297.862 325.703C255.414 200.644 236.23 250.396 91.2282 148.235Z" stroke="#AB71F4" stroke-opacity="0.2" stroke-width="0.857864"/>
<path d="M116.849 141.81C-4.51899 56.3617 97.7059 -52.117 208.607 -85.7423C272.846 -107.885 262.45 -188.48 339.627 -215.791C420.569 -244.431 404.287 -119.585 524.074 -158.023C644.672 -196.397 731.86 -4.60947 650.203 65.2809C569.586 134.319 614.996 143.464 582.666 268.903C550.335 394.341 348.49 421.946 307.121 305.534C268.132 192.021 249.775 235.279 116.849 141.81Z" stroke="#AB71F4" stroke-opacity="0.2" stroke-width="0.857864"/>
<path d="M142.47 135.385C32.9697 58.4145 124.176 -42.07 225.31 -72.4415C284.751 -92.5657 276.666 -166.151 346.677 -190.924C422.336 -217.692 407.262 -105.306 516.027 -139.291C626.01 -173.179 707.471 0.611727 631.309 65.6708C556.707 129.451 599.125 138.287 568.703 252.229C538.281 366.17 355.48 391.679 316.38 285.364C280.849 183.398 263.32 220.162 142.47 135.385Z" stroke="#AB71F4" stroke-opacity="0.2" stroke-width="0.857864"/>
<path d="M168.092 128.961C70.46 60.4681 150.648 -32.0224 242.014 -59.14C296.657 -77.2456 290.883 -143.82 353.728 -166.057C424.105 -190.952 410.237 -91.0264 507.982 -120.558C607.35 -149.961 683.083 5.83355 612.417 66.0615C543.83 124.584 583.255 133.111 554.741 235.555C526.228 337.999 362.471 361.413 325.641 265.195C293.568 174.776 276.866 205.046 168.092 128.961Z" stroke="#AB71F4" stroke-opacity="0.2" stroke-width="0.857864"/>
<path d="M194.077 122.979C108.312 62.9635 177.482 -21.5328 259.08 -45.3966C308.925 -61.4835 305.463 -121.048 361.142 -140.747C426.236 -163.77 413.575 -76.3047 500.298 -101.384C589.052 -126.301 659.057 11.4973 593.887 66.8941C531.316 120.159 567.747 128.377 541.142 219.324C514.537 310.271 369.826 331.589 335.264 245.468C306.649 166.596 290.775 190.372 194.077 122.979Z" stroke="#AB71F4" stroke-opacity="0.2" stroke-width="0.857864"/>
<path d="M220.49 117.519C146.594 65.9814 204.744 -10.5207 276.575 -31.1307C321.622 -45.1989 320.471 -97.7528 368.985 -114.916C428.796 -136.066 417.342 -61.0607 493.044 -81.6867C571.183 -102.119 635.46 17.6836 575.786 68.2491C519.23 116.257 552.668 124.165 527.972 203.615C503.275 283.065 377.608 302.287 345.316 226.263C320.158 158.938 305.112 176.22 220.49 117.519Z" stroke="#AB71F4" stroke-opacity="0.2" stroke-width="0.857864"/>
<path d="M246.928 112.088C184.9 69.0279 232.032 0.519975 294.095 -16.8362C334.344 -28.8858 335.504 -74.4294 376.852 -89.0553C431.38 -108.334 421.133 -45.788 485.814 -61.961C553.338 -77.9079 611.888 23.8985 557.71 69.6328C507.169 112.383 537.614 119.982 514.826 187.935C492.038 255.887 385.416 273.014 355.392 207.087C333.693 151.309 319.474 162.096 246.928 112.088Z" stroke="#AB71F4" stroke-opacity="0.2" stroke-width="0.857864"/>
<path d="M273.401 106.698C223.241 72.1155 259.354 11.6017 311.65 -2.5006C347.1 -12.5316 350.572 -51.0648 384.754 -63.1538C434 -80.56 424.96 -30.4742 478.62 -42.1943C535.528 -53.6558 588.351 30.1544 539.668 71.0576C495.143 108.551 522.595 115.84 501.715 172.295C480.836 228.75 393.258 243.782 365.503 187.952C347.262 143.721 333.871 148.014 273.401 106.698Z" stroke="#AB71F4" stroke-opacity="0.2" stroke-width="0.857864"/>
<path d="M299.926 101.369C261.634 75.264 286.729 22.7443 329.257 11.8958C359.909 3.88352 365.692 -27.6394 392.709 -37.1915C436.672 -52.7254 428.839 -15.0996 471.477 -22.3666C517.771 -29.3429 564.867 36.4713 521.679 72.5432C483.169 104.779 507.628 111.759 488.657 156.717C469.686 201.675 401.153 214.611 375.667 168.878C360.884 136.194 348.321 133.993 299.926 101.369Z" stroke="#AB71F4" stroke-opacity="0.2" stroke-width="0.857864"/>
<path d="M326.53 96.1314C300.106 78.5039 314.182 33.9784 346.943 26.3837C372.797 20.39 380.891 -4.12261 400.742 -11.1377C439.422 -24.7994 432.796 0.366434 464.414 -2.44759C500.092 -4.93849 541.461 42.8795 503.769 74.1202C471.274 101.098 492.74 107.77 475.677 141.23C458.615 174.69 409.127 185.531 385.909 149.896C374.585 128.758 362.849 120.063 326.53 96.1314Z" stroke="#AB71F4" stroke-opacity="0.2" stroke-width="0.857864"/>
</svg>
