<svg xmlns="http://www.w3.org/2000/svg" xmlns:xlink="http://www.w3.org/1999/xlink" viewBox="0 0 2775.43 2785.06"><defs><style>.cls-1{fill:url(#linear-gradient);}.cls-2{fill:url(#linear-gradient-2);}.cls-3{fill:url(#linear-gradient-3);}.cls-4{fill:url(#linear-gradient-4);}.cls-5{fill:url(#linear-gradient-5);}.cls-6{fill:url(#linear-gradient-6);}.cls-7{fill:#3f67f9;opacity:0.5;}.cls-8{fill:url(#linear-gradient-7);}.cls-9{fill:url(#linear-gradient-8);}.cls-10{fill:url(#linear-gradient-9);}.cls-11{fill:url(#linear-gradient-10);}.cls-12{fill:url(#linear-gradient-11);}.cls-13{fill:url(#linear-gradient-12);}.cls-14{fill:url(#linear-gradient-13);}.cls-15{fill:url(#linear-gradient-14);}.cls-16{fill:url(#linear-gradient-15);}.cls-17{fill:url(#linear-gradient-16);}.cls-18{fill:url(#linear-gradient-17);}.cls-19{fill:url(#linear-gradient-18);}.cls-20{fill:url(#linear-gradient-19);}.cls-21{fill:url(#linear-gradient-20);}.cls-22{fill:url(#linear-gradient-21);}.cls-23{fill:url(#linear-gradient-22);}.cls-24,.cls-41{fill:#fff;}.cls-25{opacity:0.4;}.cls-26{fill:url(#linear-gradient-23);}.cls-27{fill:url(#linear-gradient-24);}.cls-28{fill:url(#linear-gradient-25);}.cls-29{fill:url(#linear-gradient-26);}.cls-30{fill:url(#linear-gradient-27);}.cls-31{fill:url(#linear-gradient-28);}.cls-32{fill:url(#linear-gradient-29);}.cls-33{fill:url(#linear-gradient-30);}.cls-34{fill:url(#linear-gradient-31);}.cls-35{fill:url(#linear-gradient-32);}.cls-36{fill:url(#linear-gradient-33);}.cls-37{fill:url(#linear-gradient-34);}.cls-38{fill:url(#linear-gradient-35);}.cls-39{fill:url(#linear-gradient-36);}.cls-40{fill:url(#linear-gradient-37);}.cls-41{opacity:0.75;}</style><linearGradient id="linear-gradient" x1="3315.59" y1="-220.97" x2="2249.05" y2="985.7" gradientTransform="translate(-30.62 -313.24) rotate(2.95)" gradientUnits="userSpaceOnUse"><stop offset="0" stop-color="#a737d5"/><stop offset="1" stop-color="#ef497a"/></linearGradient><linearGradient id="linear-gradient-2" x1="2924.66" y1="635.24" x2="-461.79" y2="3056.35" gradientTransform="translate(-30.62 -313.24) rotate(2.95)" gradientUnits="userSpaceOnUse"><stop offset="0" stop-color="#cb236d"/><stop offset="1" stop-color="#4c246d"/></linearGradient><linearGradient id="linear-gradient-3" x1="2868.67" y1="883.34" x2="2105.74" y2="1833.11" xlink:href="#linear-gradient"/><linearGradient id="linear-gradient-4" x1="2628.06" y1="1349.7" x2="705.17" y2="2844.41" xlink:href="#linear-gradient-2"/><linearGradient id="linear-gradient-5" x1="451.79" y1="1345.46" x2="2253.84" y2="1345.46" gradientUnits="userSpaceOnUse"><stop offset="0" stop-color="#2b3582"/><stop offset="1" stop-color="#150e42"/></linearGradient><linearGradient id="linear-gradient-6" x1="1807.33" y1="662.04" x2="-1825.35" y2="5309.13" gradientUnits="userSpaceOnUse"><stop offset="0" stop-color="#fdf53f"/><stop offset="0.66" stop-color="#e57a58"/><stop offset="1" stop-color="#d93c65"/></linearGradient><linearGradient id="linear-gradient-7" x1="781.1" y1="126.06" x2="1412.77" y2="1330.42" gradientTransform="translate(21.54 -280.61) rotate(2.71)" xlink:href="#linear-gradient-5"/><linearGradient id="linear-gradient-8" x1="1063.67" y1="531.09" x2="1847.71" y2="1660.47" gradientTransform="translate(21.54 -280.61) rotate(2.71)" gradientUnits="userSpaceOnUse"><stop offset="0" stop-color="#53d8ff"/><stop offset="1" stop-color="#3840f7"/></linearGradient><linearGradient id="linear-gradient-9" x1="873.76" y1="978.59" x2="1971.13" y2="2355.05" xlink:href="#linear-gradient-8"/><linearGradient id="linear-gradient-10" x1="950.83" y1="971.72" x2="1785.71" y2="971.72" gradientTransform="translate(21.54 -280.61) rotate(2.71)" xlink:href="#linear-gradient-5"/><linearGradient id="linear-gradient-11" x1="1073.64" y1="584.94" x2="1286.8" y2="1778.96" gradientTransform="translate(771.71 -715.28) rotate(36.28)" xlink:href="#linear-gradient-8"/><linearGradient id="linear-gradient-12" x1="1510.32" y1="506.97" x2="1723.47" y2="1700.98" xlink:href="#linear-gradient-8"/><linearGradient id="linear-gradient-13" x1="1035.41" y1="829.09" x2="1195.28" y2="1044.05" xlink:href="#linear-gradient-8"/><linearGradient id="linear-gradient-14" x1="1485.76" y1="829.07" x2="1645.62" y2="1044.03" xlink:href="#linear-gradient-8"/><linearGradient id="linear-gradient-15" x1="890.35" y1="423.15" x2="854.67" y2="744.3" xlink:href="#linear-gradient-8"/><linearGradient id="linear-gradient-16" x1="877.5" y1="706.54" x2="981.45" y2="706.54" gradientTransform="translate(21.54 -280.61) rotate(2.71)" xlink:href="#linear-gradient-5"/><linearGradient id="linear-gradient-17" x1="924.65" y1="432.98" x2="890.63" y2="739.12" xlink:href="#linear-gradient-8"/><linearGradient id="linear-gradient-18" x1="1891.1" y1="534.29" x2="1855.42" y2="855.45" xlink:href="#linear-gradient-8"/><linearGradient id="linear-gradient-19" x1="1786.64" y1="706.49" x2="1890.61" y2="706.49" gradientTransform="translate(21.54 -280.61) rotate(2.71)" xlink:href="#linear-gradient-5"/><linearGradient id="linear-gradient-20" x1="1871.38" y1="532.74" x2="1837.02" y2="842" xlink:href="#linear-gradient-8"/><linearGradient id="linear-gradient-21" x1="1179.93" y1="598.57" x2="2666.38" y2="1942.78" xlink:href="#linear-gradient-8"/><linearGradient id="linear-gradient-22" x1="726.06" y1="486.4" x2="1781.71" y2="1285.54" xlink:href="#linear-gradient-8"/><linearGradient id="linear-gradient-23" x1="810.38" y1="1634.11" x2="247.52" y2="950.63" gradientTransform="matrix(1, 0, 0, 1, 0, 0)" xlink:href="#linear-gradient-2"/><linearGradient id="linear-gradient-24" x1="11754.37" y1="1321.48" x2="11672.32" y2="1625.06" gradientTransform="matrix(-1, 0, 0, 1, 11872.52, 0)" gradientUnits="userSpaceOnUse"><stop offset="0" stop-color="#f9b776"/><stop offset="1" stop-color="#f47960"/></linearGradient><linearGradient id="linear-gradient-25" x1="468.06" y1="1330.18" x2="-54.84" y2="2027.38" gradientTransform="matrix(1, 0, 0, 1, 0, 0)" xlink:href="#linear-gradient-8"/><linearGradient id="linear-gradient-26" x1="-6905.44" y1="3278.71" x2="-6884.96" y2="3133.28" gradientTransform="translate(7622.87 -891.79) rotate(8.64)" xlink:href="#linear-gradient-24"/><linearGradient id="linear-gradient-27" x1="-6892.96" y1="978.99" x2="-6701.44" y2="1199.19" gradientTransform="translate(6577.21 -1779.97) rotate(-16.09)" xlink:href="#linear-gradient-24"/><linearGradient id="linear-gradient-28" x1="794.27" y1="1647.37" x2="231.14" y2="963.58" gradientTransform="matrix(1, 0, 0, 1, 0, 0)" xlink:href="#linear-gradient-2"/><linearGradient id="linear-gradient-29" x1="-6845.11" y1="937.37" x2="-6653.59" y2="1157.57" gradientTransform="translate(6577.21 -1779.97) rotate(-16.09)" xlink:href="#linear-gradient-24"/><linearGradient id="linear-gradient-30" x1="15683.22" y1="3013.13" x2="16140.17" y2="2206.52" gradientTransform="matrix(-1, -0.01, -0.01, 1, 16356.04, 103.86)" xlink:href="#linear-gradient-24"/><linearGradient id="linear-gradient-31" x1="15782.83" y1="2727.95" x2="15916.4" y2="2727.95" gradientTransform="matrix(-1, -0.01, -0.01, 1, 16356.04, 103.86)" xlink:href="#linear-gradient-2"/><linearGradient id="linear-gradient-32" x1="16201.05" y1="2416.42" x2="15517.67" y2="2634.95" gradientTransform="matrix(-1, -0.01, -0.01, 1, 16356.04, 103.86)" xlink:href="#linear-gradient-24"/><linearGradient id="linear-gradient-33" x1="15906.66" y1="2752.07" x2="16065.89" y2="2752.07" gradientTransform="matrix(-1, -0.01, -0.01, 1, 16356.04, 103.86)" xlink:href="#linear-gradient-2"/><linearGradient id="linear-gradient-34" x1="1022.35" y1="1033.94" x2="740.79" y2="1416.06" gradientTransform="matrix(1, 0, 0, 1, 0, 0)" xlink:href="#linear-gradient-8"/><linearGradient id="linear-gradient-35" x1="11596.66" y1="1438.88" x2="11948.02" y2="1438.88" xlink:href="#linear-gradient-24"/><linearGradient id="linear-gradient-36" x1="-7559.43" y1="591.02" x2="-7618.87" y2="653.84" gradientTransform="matrix(0.99, -0.16, 0.21, 1.26, 7433.89, -609.71)" xlink:href="#linear-gradient-5"/><linearGradient id="linear-gradient-37" x1="11845.03" y1="1353.58" x2="11801.79" y2="1513.57" xlink:href="#linear-gradient-24"/></defs><g id="Layer_2" data-name="Layer 2"><g id="Illustration"><path class="cls-1" d="M1942.66,1698.4s10.39-376.06,188.56-467.68,510.33-137.55,550.41-676.23c23.46-315.36,38.38-453,46.71-512.93a35.6,35.6,0,0,0-40-40.24C2522.89,23.76,1984.11,123.41,1853.82,481,1699.37,904.82,1942.66,1698.4,1942.66,1698.4Z"/><path class="cls-2" d="M2553.89,144.86C2365.78,296,2143.22,569.17,2017.77,847.34c-16.64,46-63.38,143.4-90.55,319.24-23.73,146.6-23.72,302.8-9.45,406.93a12,12,0,0,0,13.55,10.29c11.32-1.55,10.45-13.69,10.33-13.31-13.29-177.34,7.28-396.16,68.68-591.39,77.94-239.6,236-467.64,397.27-659.66l16.55-18.88c124.69-144.19,149.37-144,139-155.06A6.84,6.84,0,0,0,2553.89,144.86Z"/><path class="cls-3" d="M1627.49,2406.22c-24,10.27,236.85-285.19,338.49-765.09C2013.87,1415,2029,1129.35,2164.59,1026c112.8-86.06,477.66-9.29,596.88,18.88a18.07,18.07,0,0,1,6.77,32c-60.21,45.5-189.56,153.48-227.66,267.05-50.21,149.7-199.58,238.87-330.19,258.37s-203.83,41.16-277.45,244.65S1695.68,2377,1627.49,2406.22Z"/><path class="cls-4" d="M2588.9,1100.29c-153.89-1.47-322.32,60.1-412.72,187.19l-8.54,12.13c-19.75,28.46-133.84,232.13-200.15,402.42a4.12,4.12,0,0,0,2.34,5.34,4.22,4.22,0,0,0,5.29-2.2c45-95.81,108.84-216.94,159.36-307.37,54.26-98.73,92.12-165.54,207.39-225.46C2470,1108,2589.39,1106.85,2589,1106.91a3.31,3.31,0,0,0-.13-6.62Z"/><path class="cls-5" d="M484.81,137.16c-10.63,428.73-45.1,1907.62-28.64,2431.69a105.22,105.22,0,0,0,101.77,101.9c274.59,9,1064.52,31.76,1513.67,12.91a177.17,177.17,0,0,0,169.88-173.31c9.33-450,29.93-1715.74-19-2295.57A144.58,144.58,0,0,0,2092.71,83.05C1793.66,53.13,999.4-20,611.37,5.19A135.51,135.51,0,0,0,484.81,137.16Z"/><path class="cls-6" d="M596.39,270.37c-15,351.14-62.31,1519.28-47.29,1951.23a122.21,122.21,0,0,0,115,117.88c259.66,15.19,925.67,48.7,1306.54,18.2A137.35,137.35,0,0,0,2096.75,2228c19.31-358.23,74.72-1445.94,60.33-1873a135,135,0,0,0-123-129.88c-280.91-25.22-1002.39-85.23-1326-67.57A118.08,118.08,0,0,0,596.39,270.37Z"/><path class="cls-7" d="M1163.44,80.1h0a24.67,24.67,0,0,0,23.39,24.69c64.86,3.4,247.56,13,329.22,17.75a24.71,24.71,0,0,0,25.68-29.37l-.52-2.71a24.73,24.73,0,0,0-22-19.94c-55.2-5-221.74-19.08-332.09-15.14A24.66,24.66,0,0,0,1163.44,80.1Z"/><path class="cls-8" d="M1713.44,1130,961,1094.44a61.14,61.14,0,0,1-58-63.78h0a61.15,61.15,0,0,1,63.78-58l752.43,35.6a61.13,61.13,0,0,1,58,63.77h0A61.13,61.13,0,0,1,1713.44,1130Z"/><path class="cls-9" d="M1906.7,915.38c-3.7,78.15-70.66,139.07-148.82,135.38l-825.5-39C854.22,1008,793.31,941,797,862.89l8.94-189c6.74-142.41,128.77-253.42,271.18-246.68l591.84,28c142.41,6.74,253.42,128.77,246.68,271.18Z"/><path class="cls-10" d="M925.28,1043.92l836.63,39.58c75.09,3.55,133.63,67.89,130.07,143l-5.19,109.77c-14.43,305.16-289,819.1-594.15,804.67h0c-305.17-14.44-530-552-515.55-857.17l5.2-109.77C785.84,1098.9,850.18,1040.37,925.28,1043.92Z"/><path class="cls-11" d="M1758.23,797.73a80,80,0,0,1-76,76.18c-222.9,10.39-453.12.13-689.08-32.81A80.07,80.07,0,0,1,924.28,758l2.05-43.3A80,80,0,0,1,1002,638.57c231.37-12,462-5.09,691.28,31.59a80,80,0,0,1,67,82.79Z"/><circle class="cls-12" cx="1117.22" cy="745.7" r="50.71" transform="translate(-226 742.07) rotate(-33.57)"/><path class="cls-13" d="M1618,769.39a50.72,50.72,0,1,1-48.26-53A50.71,50.71,0,0,1,1618,769.39Z"/><path class="cls-14" d="M1115.41,816.22a3,3,0,0,1,2.92-3.06h0a3,3,0,0,1,3.06,3h0a3,3,0,0,1-3,3h-.16A2.94,2.94,0,0,1,1115.41,816.22Zm-15.29,1a3.05,3.05,0,0,1-2.21-3.63h0a3,3,0,0,1,3.63-2.21h0a3,3,0,0,1,2.22,3.63h0a3,3,0,0,1-3,2.29h0C1100.5,817.25,1100.34,817.19,1100.12,817.18Zm32.85-2.73a2.94,2.94,0,0,1,2.12-3.64h0a2.91,2.91,0,0,1,3.65,2.07h0a3,3,0,0,1-2.08,3.7h0a2.69,2.69,0,0,1-.92.06h0A3,3,0,0,1,1133,814.45Zm-50.06-3.78a2.94,2.94,0,0,1-1.22-4h0a2.92,2.92,0,0,1,4-1.28h0a3,3,0,0,1,1.22,4h0a2.87,2.87,0,0,1-2.79,1.6h0A2.7,2.7,0,0,1,1082.91,810.67Zm66.67-2.27a3,3,0,0,1,1.12-4.12h0a3,3,0,0,1,4.07,1.11h0a3.06,3.06,0,0,1-1.12,4.13h0a2.89,2.89,0,0,1-1.64.35h0A3,3,0,0,1,1149.58,808.4Zm-81.74-8.32a3,3,0,0,1-.18-4.23h0a3,3,0,0,1,4.24-.18h0a3,3,0,0,1,.18,4.24h0a3.08,3.08,0,0,1-2.38,1h0A2.82,2.82,0,0,1,1067.84,800.08Zm96.27-1.68a3.06,3.06,0,0,1,.09-4.28h0a3,3,0,0,1,4.23.09h0a3,3,0,0,1-.09,4.23h0a2.88,2.88,0,0,1-2.21.82h0A3.26,3.26,0,0,1,1164.11,798.4Zm-108.25-12.28a3,3,0,0,1,.84-4.14h0a3,3,0,0,1,4.2.85h0a3,3,0,0,1-.9,4.13h0a2.91,2.91,0,0,1-1.77.52h0A3,3,0,0,1,1055.86,786.12Zm119.89-1.06a3,3,0,0,1-1-4.11h0a3,3,0,0,1,4.12-1h0a3,3,0,0,1,1,4.11h0a3,3,0,0,1-2.73,1.45h0A2.78,2.78,0,0,1,1175.75,785.06Zm-128-15.44h0a3.05,3.05,0,0,1,1.86-3.82h0a3.07,3.07,0,0,1,3.82,1.86h0a3,3,0,0,1-1.86,3.82h0a4.64,4.64,0,0,1-1.15.17h0A3,3,0,0,1,1047.74,769.62Zm136-.35a2.92,2.92,0,0,1-2-3.73h0a3.06,3.06,0,0,1,3.73-2h0a3,3,0,0,1,2,3.73h0v.05h0a3,3,0,0,1-3,2.08h0A2.82,2.82,0,0,1,1183.72,769.27ZM1044,751.59a3,3,0,0,1,2.76-3.23h0a3,3,0,0,1,3.23,2.76h0a3,3,0,0,1-2.75,3.23h0l-.38,0h0A3,3,0,0,1,1044,751.59Zm140.64-2.67v-.11h0v-.22h0a3,3,0,0,1,3.12-2.84h0a3,3,0,0,1,2.83,3.12h0V749h0v.17h0a3,3,0,0,1-3.12,2.83h0A3,3,0,0,1,1184.62,748.92Zm0-.33h0v0h0Zm-137.35-11.92a3,3,0,0,1-2.49-3.43h0a3,3,0,0,1,3.47-2.44h0a3,3,0,0,1,2.45,3.43h0a3,3,0,0,1-3.11,2.51h0A3,3,0,0,0,1047.29,736.67Zm136-4.91a3,3,0,0,1,2.29-3.53h0a3,3,0,0,1,3.58,2.29h0a3.06,3.06,0,0,1-2.34,3.58h0a3.86,3.86,0,0,1-.76,0h0A3,3,0,0,1,1183.26,731.76Zm-131.58-12.19a3,3,0,0,1-1.49-4h0a3,3,0,0,1,4-1.49h0a3,3,0,0,1,1.49,4h0a3.14,3.14,0,0,1-2.91,1.76h0A4.42,4.42,0,0,1,1051.68,719.57Zm126-3.75h0a3,3,0,0,1,1.34-4h0a2.94,2.94,0,0,1,4,1.32h0a3,3,0,0,1-1.33,4h0a3,3,0,0,1-1.48.31h0A3,3,0,0,1,1177.72,715.82Zm-117.44-11.69a3,3,0,0,1-.51-4.25h0a3,3,0,0,1,4.2-.45h0a3,3,0,0,1,.51,4.2h0a3,3,0,0,1-2.49,1.13h0A2.83,2.83,0,0,1,1060.28,704.13Zm108.08-2.42h0a3,3,0,0,1,.31-4.22h0a3.06,3.06,0,0,1,4.27.31h0a3,3,0,0,1-.31,4.22h0a3.13,3.13,0,0,1-2.1.71h0A3,3,0,0,1,1168.36,701.71Zm-96-10.46a3.05,3.05,0,0,1,.58-4.2h0a3,3,0,0,1,4.2.58h0a3,3,0,0,1-.58,4.2h0a2.93,2.93,0,0,1-2,.61h0A3,3,0,0,1,1072.39,691.25Zm83.43-.88h0a3,3,0,0,1-.73-4.16h0a3,3,0,0,1,4.16-.78h0a3.07,3.07,0,0,1,.78,4.22h0a3.12,3.12,0,0,1-2.61,1.23h0A3,3,0,0,1,1155.82,690.37Zm-68.5-8.56a3,3,0,0,1,1.6-3.94h0a3,3,0,0,1,3.93,1.66h0a3,3,0,0,1-1.64,3.88h0a2.51,2.51,0,0,1-1.26.26h0A3,3,0,0,1,1087.32,681.81Zm53.57.69h0a3.07,3.07,0,0,1-1.77-3.88h0a3,3,0,0,1,3.88-1.71h-.06a2.91,2.91,0,0,1,1.78,3.83h0a3,3,0,0,1-2.92,2h0A2.69,2.69,0,0,1,1140.89,682.5Zm-36.76-6.13a2.93,2.93,0,0,1,2.54-3.35h0a3,3,0,0,1,3.41,2.49h0a3.05,3.05,0,0,1-2.55,3.41h0a2.41,2.41,0,0,1-.6,0h0A3,3,0,0,1,1104.13,676.37Zm20.29,2.26h0a3,3,0,0,1-2.67-3.32h0a3.07,3.07,0,0,1,3.33-2.67h0a3.07,3.07,0,0,1,2.67,3.33h0a3.07,3.07,0,0,1-3.12,2.67h-.21Z"/><path class="cls-15" d="M1565.27,837.5a3,3,0,0,1,2.91-3.06h0a3,3,0,0,1,3.06,3h0a3,3,0,0,1-3,3h-.17A2.93,2.93,0,0,1,1565.27,837.5Zm-15.29,1a3.05,3.05,0,0,1-2.22-3.63h0a3,3,0,0,1,3.63-2.21h0a3,3,0,0,1,2.22,3.63h0a3,3,0,0,1-3,2.29h0C1550.35,838.53,1550.19,838.47,1550,838.46Zm32.84-2.73a2.94,2.94,0,0,1,2.13-3.64h0a2.91,2.91,0,0,1,3.64,2.07h0a3,3,0,0,1-2.07,3.7h0a3,3,0,0,1-.93.06h0A3,3,0,0,1,1582.82,835.73ZM1532.76,832a2.94,2.94,0,0,1-1.22-4h0a2.93,2.93,0,0,1,4-1.28h0a2.94,2.94,0,0,1,1.22,4h0a2.87,2.87,0,0,1-2.79,1.6h0A2.7,2.7,0,0,1,1532.76,832Zm66.68-2.27a3,3,0,0,1,1.11-4.12h0a3,3,0,0,1,4.07,1.11h0a3.06,3.06,0,0,1-1.11,4.13h0a2.94,2.94,0,0,1-1.65.35h0A2.94,2.94,0,0,1,1599.44,829.68Zm-81.75-8.32a3,3,0,0,1-.18-4.23h0a3,3,0,0,1,4.24-.19h0a3.06,3.06,0,0,1,.18,4.25h0a3.08,3.08,0,0,1-2.38,1h0A2.82,2.82,0,0,1,1517.69,821.36Zm96.27-1.68a3.05,3.05,0,0,1,.1-4.28h0a3,3,0,0,1,4.22.09h0a3,3,0,0,1-.09,4.23h0a2.87,2.87,0,0,1-2.21.82h0A3.26,3.26,0,0,1,1614,819.68ZM1505.71,807.4a3,3,0,0,1,.85-4.14h0a3,3,0,0,1,4.19.85h0a3,3,0,0,1-.9,4.13h0a2.9,2.9,0,0,1-1.76.52h0A3,3,0,0,1,1505.71,807.4Zm119.89-1.06a3,3,0,0,1-1-4.11h0a3,3,0,0,1,4.12-1h0a3,3,0,0,1,1,4.11h0a2.94,2.94,0,0,1-2.73,1.45h0A2.81,2.81,0,0,1,1625.6,806.34Zm-128-15.44h0a3,3,0,0,1,1.87-3.82h0a3.06,3.06,0,0,1,3.81,1.86h0a3,3,0,0,1-1.86,3.82h0a4.57,4.57,0,0,1-1.15.17h0A3,3,0,0,1,1497.59,790.9Zm136-.35a2.93,2.93,0,0,1-2-3.73h0a3.06,3.06,0,0,1,3.73-2h0a3,3,0,0,1,2,3.73h0v.05h0a3,3,0,0,1-3,2.08h0A2.81,2.81,0,0,1,1633.57,790.55Zm-139.74-17.68a3,3,0,0,1,2.76-3.23h0a3,3,0,0,1,3.24,2.76h0a3,3,0,0,1-2.76,3.23h0l-.38,0h0A3,3,0,0,1,1493.83,772.87Zm140.64-2.67v-.11h0v-.22h0a3,3,0,0,1,3.12-2.84h0a3,3,0,0,1,2.84,3.12h0v.16h0v.17h0a3,3,0,0,1-3.12,2.83h0A3,3,0,0,1,1634.47,770.2Zm0-.33h0v0h0ZM1497.14,758a3,3,0,0,1-2.49-3.43h0a3,3,0,0,1,3.48-2.44h0a3,3,0,0,1,2.44,3.43h0a3,3,0,0,1-3.1,2.51h0C1497.36,758,1497.25,758,1497.14,758Zm136-4.91a3,3,0,0,1,2.28-3.53h0a3,3,0,0,1,3.58,2.29h0a3.05,3.05,0,0,1-2.34,3.58h0a3.86,3.86,0,0,1-.76,0h0A3,3,0,0,1,1633.12,753Zm-131.59-12.19a3,3,0,0,1-1.49-4h0a3,3,0,0,1,4-1.49h0a3,3,0,0,1,1.49,4h0a3.14,3.14,0,0,1-2.9,1.76h0A4.37,4.37,0,0,1,1501.53,740.85Zm126-3.75h0a3,3,0,0,1,1.33-4h0a3,3,0,0,1,4,1.33h0a3,3,0,0,1-1.33,4h0a2.94,2.94,0,0,1-1.47.31h0A3,3,0,0,1,1627.58,737.1Zm-117.45-11.69a3,3,0,0,1-.5-4.25h0a3,3,0,0,1,4.2-.45h0a3,3,0,0,1,.5,4.2h0a3,3,0,0,1-2.49,1.13h0A2.83,2.83,0,0,1,1510.13,725.41ZM1618.21,723h0a3,3,0,0,1,.31-4.22h0a3,3,0,0,1,4.27.31h0a3,3,0,0,1-.31,4.22h0a3.13,3.13,0,0,1-2.1.71h0A3,3,0,0,1,1618.21,723Zm-96-10.46a3.06,3.06,0,0,1,.58-4.2h0a3,3,0,0,1,4.2.58h0a3,3,0,0,1-.57,4.2h0a3,3,0,0,1-2,.61h0A3.06,3.06,0,0,1,1522.24,712.53Zm83.43-.88h0a3,3,0,0,1-.72-4.16h0a3,3,0,0,1,4.15-.78h0a3.06,3.06,0,0,1,.78,4.22h0a3.11,3.11,0,0,1-2.61,1.23h0A3,3,0,0,1,1605.67,711.65Zm-68.5-8.56a3,3,0,0,1,1.6-3.94h0a3,3,0,0,1,3.94,1.65h0a3,3,0,0,1-1.65,3.89h0a2.51,2.51,0,0,1-1.26.26h0A3,3,0,0,1,1537.17,703.09Zm53.57.69h0a3.07,3.07,0,0,1-1.77-3.88h0a3,3,0,0,1,3.88-1.71h0a2.9,2.9,0,0,1,1.77,3.83h0a2.94,2.94,0,0,1-2.91,2h0A2.7,2.7,0,0,1,1590.74,703.78ZM1554,697.65a2.93,2.93,0,0,1,2.54-3.35h0a3,3,0,0,1,3.41,2.49h0a3.05,3.05,0,0,1-2.55,3.41h0a2.33,2.33,0,0,1-.59,0h0A3,3,0,0,1,1554,697.65Zm20.29,2.26h0a3,3,0,0,1-2.66-3.33h0a3.06,3.06,0,0,1,3.32-2.66h0a3.07,3.07,0,0,1,2.67,3.33h0a3.06,3.06,0,0,1-3.11,2.67h-.22Z"/><path class="cls-16" d="M900.68,300.54A28.14,28.14,0,1,1,873.9,271.1,28.13,28.13,0,0,1,900.68,300.54Z"/><path class="cls-17" d="M861.58,531.5s66.73,11.76,107.59-74.14l-16.11-37.63a25,25,0,0,0-33.11-13L880.5,424.15a25,25,0,0,0-14.86,21.69Z"/><path class="cls-18" d="M877.53,312.47a1.56,1.56,0,0,0-3,.76l17.3,124.48a8.52,8.52,0,0,0,12.82,6.13l7.37-4.43a14.84,14.84,0,0,0,6.26-17.91Z"/><path class="cls-19" d="M1856.46,345.75A28.14,28.14,0,1,0,1885.9,319,28.14,28.14,0,0,0,1856.46,345.75Z"/><path class="cls-20" d="M1873.58,579.37s-67.54,5.41-100.1-84l19.58-35.94a25,25,0,0,1,34.19-9.85l37.63,21.09a25,25,0,0,1,12.75,23Z"/><path class="cls-21" d="M1881.3,360.86l-28.84,121.75a8.87,8.87,0,0,1-13.9,5.1l-6.49-4.78a14.84,14.84,0,0,1-4.54-18.42l50.85-104.69A1.56,1.56,0,0,1,1881.3,360.86Z"/><path class="cls-22" d="M1052,569.88a29.8,29.8,0,0,1,.22-59.55c217.31-9,415.11-.24,604.71,26.7a29.8,29.8,0,1,1-8.38,59c-186-26.41-380.22-35-593.88-26.15A26.41,26.41,0,0,1,1052,569.88Z"/><path class="cls-23" d="M1340.28,890C1220,884.31,1099,872.61,978.11,854.94c-44.32-6.47-76-47.41-73.77-95.22l2.28-48.24C908.86,664,944,626.3,988.34,623.69c261.54-15.37,497.09-4.63,720.12,32.83,43.16,7.25,74,48.05,71.82,94.91l-2.36,49.89c-2.26,47.69-37.54,85.45-82.06,87.81A3542.23,3542.23,0,0,1,1340.28,890ZM1368,626.14c-120.91-5.72-246.75-4.64-379.28,3.15-41.47,2.43-74.34,37.88-76.45,82.45L909.94,760c-2.12,44.92,27.53,83.36,69,89.42,240.56,35.16,481.67,46.64,716.64,34.14,41.64-2.22,74.63-37.68,76.75-82.48l2.36-49.9c2.09-44-26.78-82.33-67.14-89.11C1597.91,643.63,1485.25,631.69,1368,626.14Z"/><path class="cls-24" d="M1365.37,1553.19a67.52,67.52,0,0,1-67.52,67.52h0a67.52,67.52,0,0,1-67.52-67.52V1365.1a67.52,67.52,0,0,1,67.52-67.52h0a67.52,67.52,0,0,1,67.52,67.52Z"/><path class="cls-24" d="M1436.14,1726.81H1312.32v-53h74.37c35,0,46.2-34.37,46.2-69.33v-167.6c0-7.7-4.35-13.94-12.05-13.94s-12.06,6.24-12.06,13.94v167.6c0,19.59-2.51,40.39-22.09,40.39h-148c-19.58,0-46.91-20.8-46.91-40.39V1440.81c0-7.7-9.18-13.94-16.88-13.94s-16.88,6.24-16.88,13.94v163.62c0,35,45.72,69.33,80.67,69.33h44.73v53h-94.18c-7.7,0-13.94,6.77-13.94,14.47s6.24,14.47,13.94,14.47h246.93c7.7,0,13.94-6.77,13.94-14.47S1443.84,1726.81,1436.14,1726.81Z"/><g class="cls-25"><path class="cls-24" d="M1308.53,1183c-187.29,0-339.67,152.38-339.67,339.67s152.38,339.71,339.67,339.71S1648.24,1710,1648.24,1522.7,1495.86,1183,1308.53,1183Zm0,665.66c-179.73,0-325.95-146.22-325.95-326s146.22-326,325.95-326,326,146.23,326,326S1488.29,1848.69,1308.53,1848.69Z"/></g><path class="cls-24" d="M923.13,1678.65A20.11,20.11,0,0,1,903,1698.76h0a20.11,20.11,0,0,1-20.11-20.11v-295A20.11,20.11,0,0,1,903,1363.59h0a20.11,20.11,0,0,1,20.11,20.11Z"/><path class="cls-24" d="M514.23,1678.65a20.12,20.12,0,0,1-20.11,20.11h0A20.11,20.11,0,0,1,474,1678.65v-295a20.11,20.11,0,0,1,20.11-20.11h0a20.11,20.11,0,0,1,20.11,20.11Z"/><path class="cls-24" d="M125.44,1678.65a20.12,20.12,0,0,1-20.11,20.11h0a20.11,20.11,0,0,1-20.11-20.11v-295a20.11,20.11,0,0,1,20.11-20.11h0a20.11,20.11,0,0,1,20.11,20.11Z"/><path class="cls-24" d="M789.06,1812.71A20.11,20.11,0,0,1,769,1832.82h0a20.11,20.11,0,0,1-20.11-20.11V1182.6A20.11,20.11,0,0,1,769,1162.49h0a20.11,20.11,0,0,1,20.11,20.11Z"/><path class="cls-24" d="M252.8,1812.71a20.11,20.11,0,0,1-20.11,20.11h0a20.11,20.11,0,0,1-20.11-20.11V1182.6a20.11,20.11,0,0,1,20.11-20.11h0a20.11,20.11,0,0,1,20.11,20.11Z"/><path class="cls-24" d="M648.29,1755.73a16.75,16.75,0,0,1-16.75,16.76h0a16.76,16.76,0,0,1-16.76-16.76V1306.61a16.76,16.76,0,0,1,16.76-16.76h0a16.76,16.76,0,0,1,16.75,16.76Z"/><path class="cls-24" d="M373.46,1735.62a16.76,16.76,0,0,1-16.76,16.76h0a16.76,16.76,0,0,1-16.76-16.76V1286.5a16.76,16.76,0,0,1,16.76-16.76h0a16.76,16.76,0,0,1,16.76,16.76Z"/><path class="cls-24" d="M1714.12,1383.7a20.11,20.11,0,0,0-20.11-20.11h0a20.11,20.11,0,0,0-20.11,20.11v295a20.12,20.12,0,0,0,20.11,20.11h0a20.11,20.11,0,0,0,20.11-20.11Z"/><path class="cls-24" d="M2123,1383.7a20.1,20.1,0,0,0-20.1-20.11h0a20.11,20.11,0,0,0-20.12,20.11v295a20.12,20.12,0,0,0,20.12,20.11h0a20.11,20.11,0,0,0,20.1-20.11Z"/><path class="cls-24" d="M2511.82,1383.7a20.11,20.11,0,0,0-20.11-20.11h0a20.11,20.11,0,0,0-20.11,20.11v295a20.11,20.11,0,0,0,20.11,20.11h0a20.12,20.12,0,0,0,20.11-20.11Z"/><path class="cls-24" d="M1848.19,1182.6a20.11,20.11,0,0,0-20.11-20.11h0A20.11,20.11,0,0,0,1808,1182.6v630.11a20.11,20.11,0,0,0,20.11,20.11h0a20.11,20.11,0,0,0,20.11-20.11Z"/><path class="cls-24" d="M2384.45,1182.6a20.11,20.11,0,0,0-20.11-20.11h0a20.11,20.11,0,0,0-20.11,20.11v630.11a20.11,20.11,0,0,0,20.11,20.11h0a20.11,20.11,0,0,0,20.11-20.11Z"/><path class="cls-24" d="M1982.26,1306.61a16.77,16.77,0,0,0-16.76-16.76h0a16.76,16.76,0,0,0-16.76,16.76v449.12a16.76,16.76,0,0,0,16.76,16.76h0a16.76,16.76,0,0,0,16.76-16.76Z"/><path class="cls-24" d="M2257.09,1286.5a16.76,16.76,0,0,0-16.76-16.76h0a16.77,16.77,0,0,0-16.76,16.76v449.12a16.76,16.76,0,0,0,16.76,16.76h0a16.76,16.76,0,0,0,16.76-16.76Z"/><path class="cls-26" d="M256.69,942c-59.42,39.61-113.89,128.73-5,272.32,97.71,128.8,198.06,212.91,183.21,292.14s101,278.94,336.69,148.54c232.72-128.74,188.16-376.31-94.07-470.39C512.35,1129.55,474.22,797,256.69,942Z"/><path class="cls-27" d="M67.65,1437.08s92.19,110.41,185,20.74L288.55,1541S153,1646,50.14,1480.81Z"/><path class="cls-28" d="M295.35,1232.1c25.59-7.67,100.11-21.83,171,43.57A43.92,43.92,0,0,1,479,1319.41c-19,70.09-69.27,277.15-25.23,366.75,0,0-77.61,85.55-162.28,16.6,0,0-38-165.58-87.75-238.26-34.35-50.18,54.78-188.44,77.33-221.84A26.48,26.48,0,0,1,295.35,1232.1Z"/><path class="cls-29" d="M335,1098.5s51.64,101.13,60.69,147.57c0,0-38.95,24.37-82.26-2.25,0,0-18.21-105.45-26.66-123.65Z"/><path class="cls-30" d="M219.23,1041.49s-9.62,170,61.9,172.39,78.46-118.5,78.46-118.5-21.11-76.36-55.16-85.27S219.23,1041.49,219.23,1041.49Z"/><path class="cls-31" d="M240.26,989s-32.68,33.42-27.06,54.21,75.7-1,93-10.77l57.9,61.63s-1.77-91.3-41.72-119.42S240.26,989,240.26,989Z"/><path class="cls-32" d="M337.93,1097s8.71-58.31,37.21-41.91-2.09,61.59-24.35,58.77Z"/><path class="cls-33" d="M192.64,2050.39c.29,7.52-12.91,67.14-20.09,98.94a52.39,52.39,0,0,0,5.63,37.57l248.74,418.64a57,57,0,0,1,6.53,16.29c4.56,19.64,14,67.79,9.08,111.59l-12.87,26.73,55.65-12.64,12.11-149.45-15.76-9.6A74.91,74.91,0,0,1,451.39,2553c-22.49-54.63-78.35-193.7-92.74-261.48-16.37-77-101.9-139.59-101.9-139.59l15-35.53Z"/><path class="cls-34" d="M547.16,2696.08s-30-47.64-33.59-66.19-13.38-51.29-31.91-41.43c0,0-8.73,90.09-5.72,125.29s-39.79,34.07-39.79,34.07-11.8,1.66-20.44,10.3c-6,6-1.7,16.31,6.72,16.85,14,.9,36.26,1.14,59.62-3.37a18.24,18.24,0,0,0,14.71-16.83l6.17-103.69L540.84,2699Z"/><path class="cls-35" d="M341.23,2117.08s8.77,374.46,10,427.65-8.4,171-61.72,206.27l23.2,17.18s29-24.64,57.32-72.07c31.82-53.28,41.44-63,41.44-63l-10.56-21.62A47.58,47.58,0,0,1,397,2581c11.51-55.76,49.94-241.23,60.43-281.18,12.37-47.15,13.25-110.11-29.8-162.82S341.23,2117.08,341.23,2117.08Z"/><path class="cls-36" d="M390.46,2785.05a3.26,3.26,0,0,0,3.29-2.8c1.78-12.49,9.16-62.54,15.21-75.5,6.92-14.84,29.54-77.31,0-82.61,0,0-73.47,107.33-87.57,121.81s-31.91,5.05-31.91,5.05a53.1,53.1,0,0,0-24.1,17.3,9.73,9.73,0,0,0,7.67,15.63l49.48.48a34.83,34.83,0,0,0,32.64-21.94c8.71-21.76,23.67-53.67,41.11-67.83l-9.06,86.77a3.29,3.29,0,0,0,3.25,3.64Z"/><path class="cls-37" d="M279.77,1662.38s11.15,35.55-6,94.09l-106.28,371.1a11.5,11.5,0,0,0,7.19,14c31.79,11.41,136.29,43.65,278.93,33.82a16.21,16.21,0,0,0,14.77-12.61c9.4-42.31,41.47-186.66,48.07-216.32,25.16-113,49.53-220.49-74.06-294.18C385.45,1676.66,336.06,1676.64,279.77,1662.38Z"/><path class="cls-38" d="M408,1326.35s21.39,305.7-176.12,152.16c0,0-29.17-27.56-50.23-30.91-11.35-1.8-24.14-3-33.54-3.74a4.23,4.23,0,0,0-2.77,7.68c6.78,4.76,15.67,9.9,23.38,10.7,14.91,1.54-1,12.46,15.25,41s39.4,17.77,39.4,17.77,226.31,231.76,271.5-172.44C496.42,1273.36,424.07,1277.36,408,1326.35Z"/><path class="cls-39" d="M7,1361.09l67.19-8.86c8-1.32,16.28,3.37,21.23,12l44.2,97.71c8.32,14.59,2.4,34-11.06,36.19l-54,6.92c-5.16.86-10.47-2.4-13.38-8.22L1.48,1377.57C-2,1370.67.92,1362.1,7,1361.09Z"/><path class="cls-40" d="M52.88,1492.87S7.7,1427.12,13,1419s44.85-19.69,54.15-22.43S93.9,1453.49,52.88,1492.87Z"/><path class="cls-41" d="M741.34,1603.76a2.47,2.47,0,0,1-.91-4.77c43.36-17.25,78.54-53.8,94.12-97.78S845.81,1406.67,823,1366c-32.13-57.28-93.72-89.29-153.29-120.25l-7.18-3.73c-64.4-33.54-127.17-73.49-150.2-138.15a2.47,2.47,0,0,1,4.66-1.66c22.46,63,84.33,102.35,147.83,135.42l7.17,3.73c60.21,31.29,122.48,63.65,155.33,122.22,23.52,41.92,28,94,11.92,139.3s-52.3,83-97,100.73A2.46,2.46,0,0,1,741.34,1603.76Z"/><path class="cls-41" d="M674.83,1581a2.48,2.48,0,0,1-.61-4.88c50.1-12.67,91.94-44,111.92-83.81,22.52-44.87,15.38-100.78-17-132.94a2.47,2.47,0,1,1,3.49-3.51c33.84,33.62,41.38,91.94,17.92,138.67-20.61,41.08-63.65,73.37-115.12,86.39A2.62,2.62,0,0,1,674.83,1581Z"/></g></g></svg>